<?xml version="1.0" encoding="UTF-8"?>
<svg id="Camada_2" data-name="Camada 2" xmlns="http://www.w3.org/2000/svg" xmlns:xlink="http://www.w3.org/1999/xlink" viewBox="0 0 596.69 105.62">
  <defs>
    <style>
      .cls-1 {
        fill: #e84d2a;
      }

      .cls-2 {
        filter: url(#outer-glow-1);
      }
    </style>
    <filter id="outer-glow-1" x="320.99" y="92.98" width="275.7" height="12.65" filterUnits="userSpaceOnUse">
      <feOffset dx="0" dy="0"/>
      <feGaussianBlur result="blur" stdDeviation="8"/>
      <feFlood flood-color="#ea6a08" flood-opacity="1"/>
      <feComposite in2="blur" operator="in"/>
      <feComposite in="SourceGraphic"/>
    </filter>
  </defs>
  <g id="Camada_1-2" data-name="Camada 1">
    <g>
      <path class="cls-1" d="M365.05,48.39v3.57c0,1.68-1.36,3.03-3.04,3.03h-15.9v15.34c0,1.68-1.36,3.04-3.04,3.04h-3.57c-1.68,0-3.04-1.36-3.04-3.04v-15.34h-15.59v-9.64h15.59v-13.81c0-1.68,1.36-3.04,3.04-3.04h3.57c1.68,0,3.04,1.36,3.04,3.04v13.81h15.9c1.68,0,3.04,1.36,3.04,3.04Z"/>
      <g>
        <path class="cls-1" d="M299.76,20.67h-61.08c-11.93,0-16.41,5.51-16.41,17.68v39.9c0,1.67,1.36,3.04,3.03,3.04h6.1c1.68,0,3.04-1.36,3.04-3.04v-38.07c0-5.28,2.41-7.8,7.81-7.8h57.4c6.66,0,9.3,3.67,9.3,8.38v4.59h-28.82c-14.93,0-20.44,6.43-20.44,17.45s5.97,18.49,20.32,18.49h28.36c10.22,0,12.51-3.44,12.51-12.17v-28.47c0-11.48-5.96-19.97-21.12-19.97ZM308.94,66.36c0,2.18-.92,3.1-3.33,3.1h-25.49c-6.08,0-8.5-2.87-8.5-7.35s2.3-7.12,8.73-7.12h28.58v11.36Z"/>
        <g>
          <path class="cls-1" d="M12.17,23.7v54.54c0,1.68-1.36,3.04-3.04,3.04H3.04c-1.68,0-3.04-1.36-3.04-3.04V23.7c0-1.68,1.36-3.04,3.04-3.04h6.1c1.68,0,3.04,1.36,3.04,3.04Z"/>
          <path class="cls-1" d="M137.08,62.92c0,10.79-5.63,18.37-19.86,18.37h-45.84c-2.52,0-4.56-2.04-4.56-4.56v-29.54c0-9.53-5.51-14.81-18.26-14.81h-19.86c-1.03,0-1.5.57-1.5,1.72v44.15c0,1.68-1.36,3.04-3.04,3.04h-6.09c-1.68,0-3.04-1.36-3.04-3.04V30.08c0-7.12,2.41-9.41,8.49-9.41h25.03c20.55,0,30.54,9.76,30.54,26.52v19.23c0,1.68,1.36,3.04,3.04,3.04h35.08c5.63,0,7.92-1.95,7.92-6.66s-2.52-6.77-8.61-6.77h-14.35c-16.76,0-20.89-8.38-20.89-17.68,0-10.9,5.63-17.68,19.75-17.68h30.6c1.68,0,3.04,1.36,3.04,3.04v5.64c0,1.68-1.36,3.04-3.04,3.04h-30.49c-5.62,0-7.92,2.29-7.92,6.89,0,4.25,1.84,6.55,8.61,6.55h14.24c16.76,0,21.01,7.69,21.01,17.11Z"/>
          <path class="cls-1" d="M178.87,20.67c16.07,0,26.18,9.87,26.18,30.31s-10.1,30.31-26.18,30.31h-26.86v21.95c0,1.32-1.07,2.39-2.39,2.39h-7.38c-1.32,0-2.39-1.07-2.39-2.39v-56.62c0-17.45,7.69-25.95,22.27-25.95h16.76ZM152,69.46h25.6c10.56,0,15.15-5.4,15.15-18.48s-4.59-18.6-15.15-18.6h-11.94c-9.87,0-13.66,4.36-13.66,14.81v22.27Z"/>
          <path class="cls-1" d="M219.51,23.7v54.54c0,1.68-1.36,3.04-3.04,3.04h-6.1c-1.68,0-3.04-1.36-3.04-3.04V23.7c0-1.68,1.36-3.04,3.04-3.04h6.1c1.68,0,3.04,1.36,3.04,3.04Z"/>
          <path class="cls-1" d="M.02,5.72C.02,2.41,2.54.05,6.16.05c3.31,0,5.99,1.81,5.99,5.59s-2.36,6.14-6.3,6.14C2.38,11.79.02,9.42.02,5.72Z"/>
          <path class="cls-1" d="M207.57,5.67c0-3.31,2.52-5.67,6.14-5.67,3.31,0,5.99,1.81,5.99,5.59s-2.36,6.14-6.3,6.14c-3.47,0-5.83-2.36-5.83-6.07Z"/>
        </g>
      </g>
      <g>
        <path class="cls-1" d="M410.18,27.74v8.83h-25.29c-4.24,0-5.98,1.73-5.98,5.2,0,3.2,1.39,4.94,6.5,4.94h10.74c12.65,0,15.85,5.8,15.85,12.91,0,8.14-4.24,13.86-14.98,13.86h-26.59v-8.92h26.59c4.24,0,5.98-1.47,5.98-5.02s-1.91-5.11-6.5-5.11h-10.83c-12.65,0-15.76-6.32-15.76-13.34,0-8.23,4.24-13.34,14.9-13.34h25.38Z"/>
        <path class="cls-1" d="M441.63,27.74c10.83,0,15.42,5.2,15.42,14.03s-4.24,13.17-15.5,13.17h-21.74v3.29c0,3.64,1.99,6.32,7.02,6.32h27.98v8.92h-27.98c-11.43,0-15.94-6.41-15.94-15.07v-15.59c0-8.66,4.5-15.07,15.94-15.07h14.81ZM419.8,47.75h21.48c4.94,0,6.76-2.08,6.76-5.46s-1.99-5.72-6.5-5.72h-14.72c-5.02,0-7.02,2.77-7.02,6.32v4.85Z"/>
        <path class="cls-1" d="M482.59,27.74c15.5,0,23.04,7.36,23.04,20.01v25.72h-9.27v-25.72c0-7.19-4.16-11.17-13.77-11.17h-14.98c-.78,0-1.13.43-1.13,1.3v35.6h-9.18v-38.63c0-5.37,1.82-7.1,6.41-7.1h18.88Z"/>
        <path class="cls-1" d="M536.81,27.74c11.43,0,15.94,6.41,15.94,15.07v21.48c0,6.58-1.73,9.18-9.44,9.18h-21.39c-10.83,0-15.33-5.28-15.33-13.94s4.16-13.17,15.42-13.17h21.74v-3.46c0-3.55-1.99-6.32-7.02-6.32h-27.37v-8.83h27.46ZM543.74,62.21v-8.57h-21.57c-4.85,0-6.58,1.99-6.58,5.37s1.82,5.54,6.41,5.54h19.23c1.82,0,2.51-.69,2.51-2.34Z"/>
        <path class="cls-1" d="M595.97,27.74v8.83h-22.69c-7.97,0-11.43,4.16-11.43,14.03s3.46,13.94,11.43,13.94h22.69v8.92h-23.56c-12.21,0-19.83-7.45-19.83-22.87s7.62-22.87,19.83-22.87h23.56Z"/>
      </g>
      <g class="cls-2">
        <g>
          <path class="cls-1" d="M320.99,93.12h1.77v12.36h-1.77v-12.36Z"/>
          <path class="cls-1" d="M337.09,93.12v12.36h-1.45l-7.42-9.22v9.22h-1.77v-12.36h1.45l7.42,9.22v-9.22h1.77Z"/>
          <path class="cls-1" d="M339.8,99.3c0-3.62,2.79-6.32,6.59-6.32s6.55,2.68,6.55,6.32-2.79,6.32-6.55,6.32-6.59-2.7-6.59-6.32ZM351.17,99.3c0-2.74-2.05-4.75-4.79-4.75s-4.82,2.01-4.82,4.75,2.05,4.75,4.82,4.75,4.79-2.01,4.79-4.75Z"/>
          <path class="cls-1" d="M366,93.12l-5.42,12.36h-1.75l-5.44-12.36h1.91l4.45,10.16,4.49-10.16h1.77Z"/>
          <path class="cls-1" d="M375.06,102.39h-6.57l-1.36,3.09h-1.82l5.6-12.36h1.75l5.62,12.36h-1.85l-1.36-3.09ZM374.44,100.98l-2.67-6.06-2.67,6.06h5.33Z"/>
          <path class="cls-1" d="M388.38,105.48l-2.67-3.8c-.25.02-.51.04-.78.04h-3.06v3.76h-1.77v-12.36h4.82c3.21,0,5.16,1.63,5.16,4.31,0,1.91-.99,3.29-2.72,3.9l2.93,4.15h-1.93ZM388.32,97.43c0-1.77-1.18-2.77-3.44-2.77h-3v5.56h3c2.26,0,3.44-1.02,3.44-2.79Z"/>
          <path class="cls-1" d="M391.91,104.37c0-.71.55-1.2,1.2-1.2s1.17.49,1.17,1.2-.53,1.22-1.17,1.22-1.2-.51-1.2-1.22Z"/>
        </g>
        <g>
          <path class="cls-1" d="M399.39,99.3c0-3.66,2.79-6.32,6.55-6.32,1.91,0,3.57.65,4.7,1.93l-1.15,1.11c-.95-1.01-2.12-1.47-3.48-1.47-2.79,0-4.86,2.01-4.86,4.75s2.07,4.75,4.86,4.75c1.36,0,2.53-.48,3.48-1.48l1.15,1.11c-1.13,1.27-2.79,1.94-4.72,1.94-3.74,0-6.54-2.67-6.54-6.32Z"/>
          <path class="cls-1" d="M411.9,99.3c0-3.62,2.79-6.32,6.59-6.32s6.55,2.68,6.55,6.32-2.79,6.32-6.55,6.32-6.59-2.7-6.59-6.32ZM423.27,99.3c0-2.74-2.05-4.75-4.79-4.75s-4.82,2.01-4.82,4.75,2.05,4.75,4.82,4.75,4.79-2.01,4.79-4.75Z"/>
          <path class="cls-1" d="M426.74,99.3c0-3.66,2.79-6.32,6.55-6.32,1.91,0,3.57.65,4.7,1.93l-1.15,1.11c-.95-1.01-2.12-1.47-3.48-1.47-2.79,0-4.86,2.01-4.86,4.75s2.07,4.75,4.86,4.75c1.36,0,2.53-.48,3.48-1.48l1.15,1.11c-1.13,1.27-2.79,1.94-4.72,1.94-3.74,0-6.54-2.67-6.54-6.32Z"/>
          <path class="cls-1" d="M448.78,105.48l-2.67-3.8c-.25.02-.51.04-.78.04h-3.06v3.76h-1.77v-12.36h4.82c3.21,0,5.16,1.63,5.16,4.31,0,1.91-.99,3.29-2.72,3.9l2.93,4.15h-1.93ZM448.73,97.43c0-1.77-1.18-2.77-3.44-2.77h-3v5.56h3c2.26,0,3.44-1.02,3.44-2.79Z"/>
          <path class="cls-1" d="M453.36,93.12h1.77v12.36h-1.77v-12.36Z"/>
          <path class="cls-1" d="M466.71,102.39h-6.57l-1.36,3.09h-1.82l5.6-12.36h1.75l5.62,12.36h-1.85l-1.36-3.09ZM466.09,100.98l-2.67-6.06-2.67,6.06h5.33Z"/>
          <path class="cls-1" d="M480.03,105.48l-2.67-3.8c-.25.02-.51.04-.78.04h-3.06v3.76h-1.77v-12.36h4.82c3.21,0,5.16,1.63,5.16,4.31,0,1.91-.99,3.29-2.72,3.9l2.93,4.15h-1.93ZM479.98,97.43c0-1.77-1.18-2.77-3.44-2.77h-3v5.56h3c2.26,0,3.44-1.02,3.44-2.79Z"/>
          <path class="cls-1" d="M483.56,104.37c0-.71.55-1.2,1.2-1.2s1.17.49,1.17,1.2-.53,1.22-1.17,1.22-1.2-.51-1.2-1.22Z"/>
        </g>
        <g>
          <path class="cls-1" d="M492.73,99.3c0-3.66,2.79-6.32,6.55-6.32,1.91,0,3.57.65,4.7,1.93l-1.15,1.11c-.95-1.01-2.12-1.47-3.48-1.47-2.79,0-4.86,2.01-4.86,4.75s2.07,4.75,4.86,4.75c1.36,0,2.53-.48,3.48-1.48l1.15,1.11c-1.13,1.27-2.79,1.94-4.72,1.94-3.74,0-6.54-2.67-6.54-6.32Z"/>
          <path class="cls-1" d="M505.24,99.3c0-3.62,2.79-6.32,6.59-6.32s6.55,2.68,6.55,6.32-2.79,6.32-6.55,6.32-6.59-2.7-6.59-6.32ZM516.61,99.3c0-2.74-2.05-4.75-4.79-4.75s-4.82,2.01-4.82,4.75,2.05,4.75,4.82,4.75,4.79-2.01,4.79-4.75Z"/>
          <path class="cls-1" d="M531.72,93.12v12.36h-1.45l-7.42-9.22v9.22h-1.77v-12.36h1.45l7.42,9.22v-9.22h1.77Z"/>
          <path class="cls-1" d="M544.4,103.94v1.54h-8.97v-12.36h8.73v1.54h-6.96v3.8h6.2v1.5h-6.2v3.99h7.21Z"/>
          <path class="cls-1" d="M546.2,99.3c0-3.66,2.79-6.32,6.55-6.32,1.91,0,3.57.65,4.7,1.93l-1.15,1.11c-.95-1.01-2.12-1.47-3.48-1.47-2.79,0-4.86,2.01-4.86,4.75s2.07,4.75,4.86,4.75c1.36,0,2.53-.48,3.48-1.48l1.15,1.11c-1.13,1.27-2.79,1.94-4.72,1.94-3.74,0-6.54-2.67-6.54-6.32Z"/>
          <path class="cls-1" d="M562.3,94.65h-4.24v-1.54h10.23v1.54h-4.24v10.83h-1.75v-10.83Z"/>
          <path class="cls-1" d="M577.47,102.39h-6.57l-1.36,3.09h-1.82l5.6-12.36h1.75l5.62,12.36h-1.85l-1.36-3.09ZM576.85,100.98l-2.67-6.06-2.67,6.06h5.33Z"/>
          <path class="cls-1" d="M590.79,105.48l-2.67-3.8c-.25.02-.51.04-.78.04h-3.06v3.76h-1.77v-12.36h4.82c3.21,0,5.16,1.63,5.16,4.31,0,1.91-.99,3.29-2.72,3.9l2.93,4.15h-1.93ZM590.74,97.43c0-1.77-1.18-2.77-3.44-2.77h-3v5.56h3c2.26,0,3.44-1.02,3.44-2.79Z"/>
          <path class="cls-1" d="M594.32,104.37c0-.71.55-1.2,1.2-1.2s1.17.49,1.17,1.2-.53,1.22-1.17,1.22-1.2-.51-1.2-1.22Z"/>
        </g>
      </g>
    </g>
  </g>
</svg>