<?xml version="1.0" encoding="UTF-8"?>
<svg id="Camada_2" data-name="Camada 2" xmlns="http://www.w3.org/2000/svg" xmlns:xlink="http://www.w3.org/1999/xlink" viewBox="0 0 596.69 203.44">
  <defs>
    <style>
      .cls-1 {
        fill: #e84d2a;
      }

      .cls-2 {
        fill: #2b2b2b;
      }

      .cls-3 {
        filter: url(#outer-glow-1);
      }
    </style>
    <filter id="outer-glow-1" x="514.67" y="160.17" width="82.01" height="39.92" filterUnits="userSpaceOnUse">
      <feOffset dx="0" dy="0"/>
      <feGaussianBlur result="blur" stdDeviation="8"/>
      <feFlood flood-color="#ea6a08" flood-opacity="1"/>
      <feComposite in2="blur" operator="in"/>
      <feComposite in="SourceGraphic"/>
    </filter>
  </defs>
  <g id="Camada_1-2" data-name="Camada 1">
    <g>
      <g>
        <path class="cls-1" d="M306.08,156.84v9h-25.77c-4.32,0-6.09,1.77-6.09,5.3,0,3.27,1.41,5.03,6.62,5.03h10.94c12.89,0,16.15,5.91,16.15,13.15,0,8.3-4.32,14.12-15.27,14.12h-27.09v-9.09h27.09c4.32,0,6.09-1.5,6.09-5.12s-1.94-5.21-6.62-5.21h-11.03c-12.89,0-16.06-6.44-16.06-13.59,0-8.38,4.32-13.59,15.18-13.59h25.86Z"/>
        <path class="cls-1" d="M340.5,156.84c11.03,0,15.71,5.3,15.71,14.3s-4.32,13.41-15.8,13.41h-22.15v3.35c0,3.71,2.03,6.44,7.15,6.44h28.51v9.09h-28.51c-11.65,0-16.24-6.53-16.24-15.36v-15.89c0-8.83,4.59-15.36,16.24-15.36h15.09ZM318.26,177.23h21.89c5.03,0,6.88-2.12,6.88-5.56s-2.03-5.82-6.62-5.82h-15c-5.12,0-7.15,2.82-7.15,6.44v4.94Z"/>
        <path class="cls-1" d="M384.63,156.84c15.8,0,23.48,7.5,23.48,20.39v26.21h-9.44v-26.21c0-7.33-4.24-11.39-14.03-11.39h-15.27c-.79,0-1.15.44-1.15,1.32v36.27h-9.36v-39.36c0-5.47,1.85-7.24,6.53-7.24h19.24Z"/>
        <path class="cls-1" d="M442.26,156.84c11.65,0,16.24,6.53,16.24,15.36v21.89c0,6.71-1.77,9.36-9.62,9.36h-21.8c-11.03,0-15.62-5.38-15.62-14.21s4.24-13.41,15.71-13.41h22.15v-3.53c0-3.62-2.03-6.44-7.15-6.44h-27.89v-9h27.98ZM449.32,191.96v-8.74h-21.98c-4.94,0-6.71,2.03-6.71,5.47s1.85,5.65,6.53,5.65h19.59c1.85,0,2.56-.71,2.56-2.38Z"/>
        <path class="cls-1" d="M504.92,156.84v9h-23.12c-8.12,0-11.65,4.24-11.65,14.3s3.53,14.21,11.65,14.21h23.12v9.09h-24.01c-12.44,0-20.21-7.59-20.21-23.3s7.77-23.3,20.21-23.3h24.01Z"/>
      </g>
      <path class="cls-1" d="M596.69,79.09v5.83c0,2.74-2.23,4.96-4.97,4.96h-25.99v25.07c0,2.74-2.22,4.96-4.96,4.96h-5.83c-2.74,0-4.96-2.22-4.96-4.96v-25.07h-25.48v-15.76h25.48v-22.58c0-2.74,2.22-4.96,4.96-4.96h5.83c2.74,0,4.96,2.22,4.96,4.96v22.58h25.99c2.74,0,4.97,2.22,4.97,4.97Z"/>
      <g>
        <path class="cls-2" d="M489.97,33.79h-99.84c-19.51,0-26.82,9.01-26.82,28.89v65.23c0,2.74,2.22,4.96,4.96,4.96h9.97c2.75,0,4.96-2.23,4.96-4.96v-62.22c0-8.63,3.94-12.76,12.76-12.76h93.82c10.88,0,15.2,6.01,15.2,13.69v7.51h-47.1c-24.4,0-33.4,10.51-33.4,28.52s9.76,30.22,33.21,30.22h46.36c16.7,0,20.44-5.63,20.44-19.9v-46.54c0-18.76-9.75-32.65-34.52-32.65ZM504.99,108.46c0,3.57-1.5,5.07-5.44,5.07h-41.66c-9.94,0-13.89-4.69-13.89-12.01s3.76-11.63,14.27-11.63h46.72v18.58Z"/>
        <g>
          <path class="cls-2" d="M19.89,38.75v89.15c0,2.74-2.22,4.96-4.96,4.96H4.96c-2.74,0-4.96-2.22-4.96-4.96V38.75c0-2.74,2.22-4.96,4.96-4.96h9.96c2.74,0,4.96,2.22,4.96,4.96Z"/>
          <path class="cls-2" d="M224.06,102.84c0,17.64-9.2,30.02-32.47,30.02h-74.93c-4.11,0-7.45-3.33-7.45-7.45v-48.28c0-15.58-9.01-24.21-29.84-24.21h-32.46c-1.69,0-2.45.94-2.45,2.81v72.16c0,2.74-2.22,4.96-4.96,4.96h-9.96c-2.74,0-4.96-2.22-4.96-4.96V49.17c0-11.64,3.94-15.38,13.88-15.38h40.91c33.59,0,49.92,15.95,49.92,43.35v31.44c0,2.74,2.22,4.96,4.96,4.96h57.34c9.2,0,12.95-3.19,12.95-10.88s-4.12-11.07-14.07-11.07h-23.45c-27.4,0-34.15-13.7-34.15-28.9,0-17.82,9.2-28.89,32.28-28.89h50.01c2.74,0,4.96,2.22,4.96,4.96v9.21c0,2.74-2.22,4.96-4.96,4.96h-49.83c-9.19,0-12.95,3.75-12.95,11.25,0,6.95,3,10.7,14.07,10.7h23.27c27.39,0,34.34,12.57,34.34,27.96Z"/>
          <path class="cls-2" d="M292.37,33.78c26.27,0,42.79,16.14,42.79,49.54s-16.51,49.54-42.79,49.54h-43.91v35.87c0,2.16-1.75,3.91-3.91,3.91h-12.07c-2.16,0-3.91-1.75-3.91-3.91v-92.54c0-28.52,12.57-42.41,36.41-42.41h27.4ZM248.46,113.54h41.85c17.26,0,24.77-8.82,24.77-30.21s-7.51-30.4-24.77-30.4h-19.52c-16.14,0-22.33,7.13-22.33,24.21v36.41Z"/>
          <path class="cls-2" d="M358.8,38.75v89.15c0,2.74-2.22,4.96-4.96,4.96h-9.96c-2.74,0-4.96-2.22-4.96-4.96V38.75c0-2.74,2.22-4.96,4.96-4.96h9.96c2.74,0,4.96,2.22,4.96,4.96Z"/>
          <path class="cls-2" d="M.03,9.35C.03,3.94,4.15.08,10.07.08c5.41,0,9.79,2.96,9.79,9.14s-3.86,10.04-10.3,10.04C3.89,19.26.03,15.4.03,9.35Z"/>
          <path class="cls-2" d="M339.28,9.27c0-5.41,4.12-9.27,10.04-9.27,5.41,0,9.79,2.96,9.79,9.14s-3.86,10.04-10.3,10.04c-5.67,0-9.53-3.86-9.53-9.92Z"/>
        </g>
      </g>
      <g class="cls-3">
        <g>
          <path class="cls-2" d="M514.67,160.29h1.39v9.75h-1.39v-9.75Z"/>
          <path class="cls-2" d="M527.38,160.29v9.75h-1.14l-5.85-7.27v7.27h-1.39v-9.75h1.14l5.85,7.27v-7.27h1.39Z"/>
          <path class="cls-2" d="M529.52,165.16c0-2.86,2.2-4.99,5.2-4.99s5.17,2.12,5.17,4.99-2.2,4.99-5.17,4.99-5.2-2.13-5.2-4.99ZM538.49,165.16c0-2.16-1.62-3.75-3.78-3.75s-3.8,1.59-3.8,3.75,1.62,3.75,3.8,3.75,3.78-1.59,3.78-3.75Z"/>
          <path class="cls-2" d="M550.18,160.29l-4.28,9.75h-1.38l-4.29-9.75h1.5l3.51,8.01,3.54-8.01h1.39Z"/>
          <path class="cls-2" d="M557.33,167.6h-5.18l-1.07,2.44h-1.44l4.42-9.75h1.38l4.43,9.75h-1.46l-1.07-2.44ZM556.85,166.49l-2.1-4.78-2.1,4.78h4.21Z"/>
          <path class="cls-2" d="M567.84,170.04l-2.1-3c-.2.01-.4.03-.61.03h-2.41v2.97h-1.39v-9.75h3.8c2.54,0,4.07,1.28,4.07,3.4,0,1.5-.78,2.59-2.15,3.08l2.31,3.27h-1.52ZM567.8,163.69c0-1.39-.93-2.19-2.72-2.19h-2.37v4.39h2.37c1.78,0,2.72-.81,2.72-2.2Z"/>
          <path class="cls-2" d="M570.63,169.16c0-.56.43-.95.95-.95s.92.39.92.95-.42.96-.92.96-.95-.4-.95-.96Z"/>
        </g>
        <g>
          <path class="cls-2" d="M514.67,180.14c0-2.88,2.2-4.99,5.17-4.99,1.5,0,2.81.52,3.71,1.52l-.91.88c-.75-.79-1.67-1.16-2.75-1.16-2.2,0-3.83,1.59-3.83,3.75s1.63,3.75,3.83,3.75c1.07,0,1.99-.38,2.75-1.17l.91.88c-.89,1-2.2,1.53-3.72,1.53-2.95,0-5.16-2.1-5.16-4.99Z"/>
          <path class="cls-2" d="M524.54,180.14c0-2.86,2.2-4.99,5.2-4.99s5.17,2.12,5.17,4.99-2.2,4.99-5.17,4.99-5.2-2.13-5.2-4.99ZM533.52,180.14c0-2.16-1.62-3.75-3.78-3.75s-3.8,1.59-3.8,3.75,1.62,3.75,3.8,3.75,3.78-1.59,3.78-3.75Z"/>
          <path class="cls-2" d="M536.25,180.14c0-2.88,2.2-4.99,5.17-4.99,1.5,0,2.81.52,3.71,1.52l-.91.88c-.75-.79-1.67-1.16-2.75-1.16-2.2,0-3.83,1.59-3.83,3.75s1.63,3.75,3.83,3.75c1.07,0,1.99-.38,2.75-1.17l.91.88c-.89,1-2.2,1.53-3.72,1.53-2.95,0-5.16-2.1-5.16-4.99Z"/>
          <path class="cls-2" d="M553.64,185.01l-2.1-3c-.2.01-.4.03-.61.03h-2.41v2.97h-1.39v-9.75h3.8c2.54,0,4.07,1.28,4.07,3.4,0,1.5-.78,2.59-2.15,3.08l2.31,3.27h-1.52ZM553.6,178.66c0-1.39-.93-2.19-2.72-2.19h-2.37v4.39h2.37c1.78,0,2.72-.81,2.72-2.2Z"/>
          <path class="cls-2" d="M557.25,175.26h1.39v9.75h-1.39v-9.75Z"/>
          <path class="cls-2" d="M567.78,182.58h-5.18l-1.07,2.44h-1.44l4.42-9.75h1.38l4.43,9.75h-1.46l-1.07-2.44ZM567.3,181.46l-2.1-4.78-2.1,4.78h4.21Z"/>
          <path class="cls-2" d="M578.29,185.01l-2.1-3c-.2.01-.4.03-.61.03h-2.41v2.97h-1.39v-9.75h3.8c2.54,0,4.07,1.28,4.07,3.4,0,1.5-.78,2.59-2.15,3.08l2.31,3.27h-1.52ZM578.25,178.66c0-1.39-.93-2.19-2.72-2.19h-2.37v4.39h2.37c1.78,0,2.72-.81,2.72-2.2Z"/>
          <path class="cls-2" d="M581.08,184.14c0-.56.43-.95.95-.95s.92.39.92.95-.42.96-.92.96-.95-.4-.95-.96Z"/>
        </g>
        <g>
          <path class="cls-2" d="M514.67,195.11c0-2.88,2.2-4.99,5.17-4.99,1.5,0,2.81.52,3.71,1.52l-.91.88c-.75-.79-1.67-1.16-2.75-1.16-2.2,0-3.83,1.59-3.83,3.75s1.63,3.75,3.83,3.75c1.07,0,1.99-.38,2.75-1.17l.91.88c-.89,1-2.2,1.53-3.72,1.53-2.95,0-5.16-2.1-5.16-4.99Z"/>
          <path class="cls-2" d="M524.54,195.11c0-2.86,2.2-4.99,5.2-4.99s5.17,2.12,5.17,4.99-2.2,4.99-5.17,4.99-5.2-2.13-5.2-4.99ZM533.52,195.11c0-2.16-1.62-3.75-3.78-3.75s-3.8,1.59-3.8,3.75,1.62,3.75,3.8,3.75,3.78-1.59,3.78-3.75Z"/>
          <path class="cls-2" d="M545.43,190.23v9.75h-1.14l-5.85-7.27v7.27h-1.39v-9.75h1.14l5.85,7.27v-7.27h1.39Z"/>
          <path class="cls-2" d="M555.44,198.78v1.21h-7.08v-9.75h6.88v1.21h-5.49v3h4.89v1.18h-4.89v3.15h5.69Z"/>
          <path class="cls-2" d="M556.86,195.11c0-2.88,2.2-4.99,5.17-4.99,1.5,0,2.81.52,3.71,1.52l-.91.88c-.75-.79-1.67-1.16-2.75-1.16-2.2,0-3.83,1.59-3.83,3.75s1.63,3.75,3.83,3.75c1.07,0,1.99-.38,2.75-1.17l.91.88c-.89,1-2.2,1.53-3.72,1.53-2.95,0-5.16-2.1-5.16-4.99Z"/>
          <path class="cls-2" d="M569.55,191.45h-3.34v-1.21h8.07v1.21h-3.34v8.54h-1.38v-8.54Z"/>
          <path class="cls-2" d="M581.53,197.55h-5.18l-1.07,2.44h-1.44l4.42-9.75h1.38l4.43,9.75h-1.46l-1.07-2.44ZM581.04,196.44l-2.1-4.78-2.1,4.78h4.21Z"/>
          <path class="cls-2" d="M592.03,199.99l-2.1-3c-.2.01-.4.03-.61.03h-2.41v2.97h-1.39v-9.75h3.8c2.54,0,4.07,1.28,4.07,3.4,0,1.5-.78,2.59-2.15,3.08l2.31,3.27h-1.52ZM591.99,193.63c0-1.39-.93-2.19-2.72-2.19h-2.37v4.39h2.37c1.78,0,2.72-.81,2.72-2.2Z"/>
          <path class="cls-2" d="M594.82,199.11c0-.56.43-.95.95-.95s.92.39.92.95-.42.96-.92.96-.95-.4-.95-.96Z"/>
        </g>
      </g>
    </g>
  </g>
</svg>